<svg width="470" height="11" viewBox="0 0 470 11" fill="none" xmlns="http://www.w3.org/2000/svg">
<path d="M0 5H216.25M470 5H254.167" stroke="#AEB3B6" stroke-width="2" stroke-dasharray="2 3"/>
<path d="M235.473 10.9196C235.302 10.9196 235.156 10.7959 235.112 10.6285C234.978 10.0973 234.727 9.52966 234.348 8.92928C233.904 8.20883 233.268 7.53931 232.445 6.92438C231.728 6.38222 231.012 6.01471 230.295 5.81459C230.124 5.76728 230 5.6181 230 5.4398C230 5.26879 230.12 5.1196 230.284 5.0723C230.986 4.87217 231.663 4.54469 232.314 4.0935C233.064 3.57317 233.69 2.94732 234.192 2.21595C234.636 1.56463 234.941 0.924221 235.105 0.287455C235.149 0.120076 235.294 0 235.469 0C235.644 0 235.789 0.123715 235.833 0.294732C235.927 0.676792 236.077 1.06613 236.28 1.46638C236.535 1.9576 236.863 2.43427 237.263 2.8891C237.67 3.33302 238.125 3.73691 238.627 4.09714C239.282 4.56289 239.952 4.89037 240.629 5.07594C240.796 5.12324 240.916 5.26879 240.916 5.44344C240.916 5.6181 240.792 5.76728 240.621 5.81459C240.192 5.93102 239.748 6.12387 239.293 6.38586C238.744 6.7097 238.231 7.09176 237.758 7.53568C237.285 7.97231 236.895 8.43079 236.593 8.91473C236.215 9.51511 235.964 10.0864 235.829 10.6249C235.789 10.7923 235.644 10.916 235.469 10.916L235.473 10.9196Z" fill="#73777A"/>
</svg>
